<svg xmlns="http://www.w3.org/2000/svg" xmlns:xlink="http://www.w3.org/1999/xlink" version="1.1" id="Calque_1" x="0px" y="0px" viewBox="0 0 347.4 283.5" style="enable-background:new 0 0 347.4 283.5;" xml:space="preserve">
<style type="text/css">
	.st0{fill:#FFFFFF;}
	.st1{fill:#000091;}
	.st2{fill:#E1000F;}
	.st3{fill:#9D9D9C;}
</style>
<rect class="st0" width="347.4" height="283.5"/>
<path id="Devise_Républicaine_9_" d="M81,253.8c0.5,0,0.9,0.4,0.7,1.3l-2.2,0.5C79.8,254.6,80.5,253.8,81,253.8 M82.2,257.4h-0.4  c-0.6,0.7-1.2,1.2-1.7,1.2c-0.6,0-0.9-0.4-0.9-1.2c0-0.3,0-0.7,0.1-1l3.6-1.2c0.7-1.7-0.1-2.4-1.1-2.4c-1.7,0-3.6,2.8-3.6,5.3  c0,1.1,0.5,1.7,1.4,1.7C80.4,259.9,81.4,259,82.2,257.4 M81.5,252.2l2.5-2.4v-0.3h-1.4l-1.6,2.6H81.5z M73.7,253.9h1.2l-1.9,5.2  c-0.2,0.4,0.1,0.9,0.5,0.9c1.1,0,2.8-1.1,3.4-2.5h-0.3c-0.5,0.5-1.4,1.2-2.2,1.3l1.7-4.9H78l0.2-0.7h-1.7l0.7-1.9h-0.7l-1.2,1.9  l-1.5,0.2V253.9z M72.1,253.6c0.1-0.5-0.2-0.7-0.4-0.7c-1,0-2.3,0.9-2.8,2.2h0.3c0.3-0.5,0.9-1,1.4-1.1l-2,5.1  c-0.2,0.5,0.2,0.8,0.4,0.8c1,0,2.1-0.9,2.6-2.2h-0.3c-0.3,0.5-0.9,1-1.4,1.1L72.1,253.6z M72.5,251c0.5,0,0.9-0.4,0.9-0.9  c0-0.5-0.4-0.9-0.9-0.9c-0.5,0-0.9,0.4-0.9,0.9C71.7,250.7,72,251,72.5,251 M61.1,259c-0.3,0.6,0,1,0.6,1c0.3,0,0.5-0.1,0.6-0.5  l1.4-3.6c0.6-0.8,1.9-1.6,2.5-1.6c0.4,0,0.3,0.3,0.1,0.8l-2.1,4c-0.2,0.4,0.1,0.9,0.5,0.9c1,0,2.3-0.9,2.8-2.2h-0.3  c-0.3,0.5-0.9,1-1.4,1.1l1.8-3.7c0.2-0.5,0.3-0.9,0.3-1.3c0-0.6-0.3-1-1-1c-0.9,0-1.8,1-2.9,2.3v-1c0-0.7-0.2-1.3-0.8-1.3  c-0.4,0-0.8,0.3-1.1,0.8v0.1c0.7,0,1,1,0.5,2L61.1,259z M61.1,254.5c0.2-0.8,0.1-1.6-0.5-1.6c-0.8,0-1,0.6-1.7,2.3v-1  c0-0.7-0.2-1.3-0.8-1.3c-0.7,0-1.4,1.1-1.9,2.2h0.3c0.3-0.5,0.7-0.8,0.9-0.8c0.3,0,0.5,0.5,0,1.5L56,259c-0.3,0.6,0,1,0.6,1  c0.3,0,0.5-0.1,0.6-0.5l1.4-3.6c0.4-0.5,0.7-0.9,1.2-1.4H61.1z M53.1,253.8c0.5,0,0.9,0.4,0.7,1.3l-2.2,0.5  C52,254.6,52.6,253.8,53.1,253.8 M54.4,257.4h-0.4c-0.6,0.7-1.2,1.2-1.7,1.2c-0.6,0-0.9-0.4-0.9-1.2c0-0.3,0-0.7,0.1-1l3.6-1.2  c0.7-1.7-0.1-2.4-1.1-2.4c-1.7,0-3.6,2.8-3.6,5.3c0,1.1,0.5,1.7,1.4,1.7C52.5,259.9,53.5,259,54.4,257.4 M45.9,253.9h1.2l-1.9,5.2  c-0.2,0.4,0.1,0.9,0.5,0.9c1.1,0,2.8-1.1,3.4-2.5h-0.3c-0.5,0.5-1.4,1.2-2.2,1.3l1.7-4.9h1.8l0.2-0.7h-1.7l0.7-1.9h-0.7l-1.2,1.9  l-1.5,0.2V253.9z M39.4,257.9c0-1.6,1.8-3.8,2.8-3.8c0.2,0,0.4,0,0.6,0.1l-1,2.8c-0.6,0.7-1.5,1.6-1.9,1.6  C39.5,258.6,39.4,258.4,39.4,257.9 M44.8,252.6l-0.5,0l-0.6,0.6h-0.1c-2.9,0-5.5,3.3-5.5,5.7c0,0.7,0.4,1.1,1.1,1.1  c0.8,0,1.5-1.1,2.4-2.3l0,0.4c-0.1,1.2,0.3,1.8,0.9,1.8c0.7,0,1.4-1.1,1.9-2.2h-0.3c-0.3,0.5-0.7,0.8-0.9,0.8c-0.3,0-0.5-0.5,0-1.5  L44.8,252.6z M38.5,254.5c0.2-0.8,0.1-1.6-0.5-1.6c-0.8,0-1,0.6-1.7,2.3v-1c0-0.7-0.2-1.3-0.8-1.3c-0.7,0-1.4,1.1-1.9,2.2h0.3  c0.3-0.5,0.7-0.8,0.9-0.8c0.3,0,0.5,0.5,0,1.5l-1.4,3.1c-0.3,0.6,0,1,0.6,1c0.3,0,0.5-0.1,0.6-0.5l1.4-3.6c0.4-0.5,0.7-0.9,1.2-1.4  H38.5z M28.6,259.7l0.1-0.4c-1.7-0.3-1.9-0.3-1.3-2.2l0.7-1.9h1.9c0.9,0,0.9,0.3,0.7,1.3h0.5l1.1-3.1H32c-0.4,0.7-0.8,1.3-1.7,1.3  h-1.9l1-2.7c0.3-0.9,0.5-1,1.7-1h0.8c1.2,0,1.3,0.3,1.3,1.5h0.5l0.4-2.1H27l-0.1,0.4c1.4,0.3,1.5,0.4,0.9,2.2l-1.6,4.2  c-0.6,1.8-0.9,1.9-2.5,2.2l-0.1,0.4H28.6z M63.6,237.7c0.5,0,0.9,0.4,0.7,1.3l-2.2,0.5C62.5,238.4,63.1,237.7,63.6,237.7   M64.9,241.3h-0.4c-0.6,0.7-1.2,1.2-1.7,1.2c-0.6,0-0.9-0.4-0.9-1.2c0-0.3,0-0.7,0.1-1l3.6-1.2c0.7-1.7-0.1-2.4-1.1-2.4  c-1.7,0-3.6,2.8-3.6,5.3c0,1.1,0.5,1.7,1.4,1.7C63,243.8,64,242.8,64.9,241.3 M64.2,236.1l2.5-2.4v-0.3h-1.4l-1.6,2.6H64.2z   M56.4,237.7h1.2l-1.9,5.2c-0.2,0.4,0.1,0.9,0.5,0.9c1.1,0,2.8-1.1,3.4-2.5h-0.3c-0.5,0.5-1.4,1.2-2.2,1.3l1.7-4.9h1.8l0.2-0.7h-1.7  l0.7-1.9h-0.7l-1.2,1.9l-1.5,0.2V237.7z M54.8,237.5c0.1-0.5-0.2-0.8-0.4-0.8c-1,0-2.3,0.9-2.8,2.2H52c0.3-0.5,0.9-1,1.4-1.1l-2,5.1  c-0.2,0.5,0.2,0.8,0.4,0.8c1,0,2.1-0.9,2.6-2.2h-0.3c-0.3,0.5-0.9,1-1.4,1.1L54.8,237.5z M55.2,234.9c0.5,0,0.9-0.4,0.9-0.9  c0-0.5-0.4-0.9-0.9-0.9c-0.5,0-0.9,0.4-0.9,0.9C54.3,234.5,54.7,234.9,55.2,234.9 M48.3,242.6l3.6-9.5l-0.1-0.1l-2.3,0.3v0.3  l0.4,0.3c0.4,0.3,0.3,0.6-0.1,1.6l-2.8,7.4c-0.2,0.4,0.1,0.9,0.5,0.9c1,0,2.1-0.9,2.6-2.2h-0.3C49.5,242,48.8,242.5,48.3,242.6   M41.4,241.7c0-1.6,1.8-3.8,2.8-3.8c0.2,0,0.4,0,0.6,0.1l-1,2.8c-0.6,0.7-1.5,1.6-1.9,1.6C41.6,242.4,41.4,242.2,41.4,241.7   M46.9,236.4l-0.5,0l-0.6,0.6h-0.1c-2.9,0-5.5,3.3-5.5,5.7c0,0.7,0.4,1.1,1.1,1.1c0.8,0,1.5-1.1,2.4-2.3l0,0.4  c-0.1,1.2,0.3,1.8,0.9,1.8c0.7,0,1.4-1.1,1.9-2.2h-0.3c-0.3,0.5-0.7,0.8-0.9,0.8c-0.3,0-0.5-0.5,0-1.5L46.9,236.4z M33.7,245  c0-0.7,0.7-1.1,1.6-1.5c0.3,0.2,0.8,0.3,1.4,0.5c1,0.3,1.4,0.5,1.4,0.8c0,0.6-1.1,1.1-2.5,1.1C34.3,245.9,33.7,245.7,33.7,245   M36.4,240.8c-0.4,0-0.6-0.4-0.6-0.8c0-1.2,0.6-2.8,1.6-2.8c0.4,0,0.6,0.4,0.6,0.8C38,239.1,37.4,240.8,36.4,240.8 M39.2,244.4  c0-0.8-0.7-1.1-1.9-1.5c-1-0.3-1.5-0.4-1.5-0.7c0-0.3,0.2-0.6,0.7-0.8c1.7-0.1,2.8-1.6,2.8-2.9c0-0.3-0.1-0.5-0.1-0.7h1.4l0.2-0.7  h-2.3c-0.3-0.2-0.6-0.3-0.9-0.3c-1.8,0-3,1.6-3,2.9c0,1,0.6,1.6,1.4,1.7c-0.8,0.4-1.3,0.8-1.3,1.3c0,0.3,0.1,0.5,0.3,0.7  c-1.9,0.6-2.7,1.2-2.7,2.1c0,0.9,1.2,1.3,2.6,1.3C37.2,246.7,39.2,245.4,39.2,244.4 M30.2,238.8c0.9,0,0.9,0.3,0.7,1.3h0.5l1.1-3.1  H32c-0.4,0.7-0.8,1.3-1.7,1.3h-1.9l0.9-2.6c0.3-0.9,0.5-1,1.7-1h0.8c1.2,0,1.3,0.3,1.3,1.5h0.5l0.4-2.1H27l-0.1,0.4  c1.4,0.3,1.5,0.4,0.9,2.2l-1.6,4.2c-0.6,1.8-0.9,1.9-2.5,2.2l-0.1,0.4h7.9l1.4-2.3h-0.5c-0.9,0.9-2,1.7-3.6,1.7  c-2.1,0-1.9-0.1-1.2-2l0.8-2.1H30.2z M31.2,233.4l2.5-1.7v-0.3h-1.5l-1.4,2H31.2z M62.8,221.5c0.5,0,0.9,0.4,0.7,1.3l-2.2,0.5  C61.6,222.3,62.3,221.5,62.8,221.5 M64,225.1h-0.4c-0.6,0.7-1.2,1.2-1.7,1.2c-0.6,0-0.9-0.4-0.9-1.2c0-0.3,0-0.7,0.1-1l3.6-1.2  c0.7-1.7-0.1-2.4-1.1-2.4c-1.7,0-3.6,2.8-3.6,5.3c0,1.1,0.5,1.7,1.4,1.7C62.2,227.6,63.2,226.6,64,225.1 M63.3,219.9l2.5-2.4v-0.3  h-1.4l-1.6,2.6H63.3z M55.9,221.5h0.9l-1.9,5.2c-0.2,0.4,0.1,0.9,0.5,0.9c1.1,0,2.8-1.1,3.4-2.5h-0.3c-0.5,0.5-1.4,1.2-2.2,1.3  l1.7-4.9h1.8l0.2-0.7h-1.7l0.7-1.9h-0.7l-1.2,1.9l-1.2,0.2V221.5z M55,222.1c0.2-0.8,0.1-1.6-0.5-1.6c-0.8,0-1,0.6-1.7,2.3v-1  c0-0.7-0.2-1.3-0.8-1.3c-0.7,0-1.4,1.1-1.9,2.2h0.3c0.3-0.5,0.7-0.8,0.9-0.8c0.3,0,0.5,0.5,0,1.5l-1.4,3.1c-0.3,0.6,0,1,0.6,1  c0.3,0,0.5-0.1,0.6-0.5l1.4-3.6c0.4-0.5,0.7-0.9,1.2-1.4H55z M47,221.5c0.5,0,0.9,0.4,0.7,1.3l-2.2,0.5  C45.9,222.3,46.5,221.5,47,221.5 M48.3,225.1h-0.4c-0.6,0.7-1.2,1.2-1.7,1.2c-0.6,0-0.9-0.4-0.9-1.2c0-0.3,0-0.7,0.1-1l3.6-1.2  c0.7-1.7-0.1-2.4-1.1-2.4c-1.7,0-3.6,2.8-3.6,5.3c0,1.1,0.5,1.7,1.4,1.7C46.4,227.6,47.4,226.6,48.3,225.1 M39.5,226.5  c-0.3,0-0.9-0.3-0.9-0.6c0-0.1,0.2-0.5,0.3-1l0.6-1.5c0.6-0.7,1.6-1.5,2.1-1.5c0.3,0,0.6,0.2,0.6,0.7  C42.2,224,40.9,226.5,39.5,226.5 M43.6,222c0-1-0.4-1.4-1.1-1.4c-0.9,0-1.8,1-2.6,2.1L42,217l-0.1-0.1l-2.3,0.3v0.3l0.4,0.3  c0.4,0.3,0.3,0.6-0.1,1.6l-2.3,6c-0.2,0.4-0.4,1-0.4,1.1c0,0.6,0.8,1.2,1.6,1.2C40.6,227.6,43.6,224.4,43.6,222 M36.5,221.3  c0.1-0.5-0.2-0.8-0.4-0.8c-1,0-2.3,0.9-2.8,2.2h0.3c0.3-0.5,0.9-1,1.4-1.1l-2,5.1c-0.2,0.5,0.2,0.8,0.4,0.8c1,0,2.1-0.9,2.6-2.2  h-0.3c-0.3,0.5-0.9,1-1.4,1.1L36.5,221.3z M36.9,218.7c0.5,0,0.9-0.4,0.9-0.9c0-0.5-0.4-0.9-0.9-0.9c-0.5,0-0.9,0.4-0.9,0.9  C36,218.3,36.4,218.7,36.9,218.7 M31.7,217.9H27l-0.1,0.4c1.4,0.3,1.5,0.4,0.9,2.2l-1.5,4.2c-0.6,1.8-0.9,1.9-2.5,2.2l-0.1,0.4h7.2  l1.6-2.8h-0.5c-0.9,1-1.9,2.2-3.5,2.2c-1.2,0-1.3-0.2-0.7-2l1.5-4.2c0.6-1.8,0.9-1.9,2.5-2.2L31.7,217.9z"/>
<g>
	<path d="M25,76V58.9h4.4l4.1,7.1l4.1-7.1h4.4V76h-3.5V63.8l-3.8,6.3h-2.4l-3.8-6.3V76H25z"/>
	<path d="M46.8,76V58.9h3.5V76H46.8z"/>
	<path d="M55.1,76V58.9h4.5l7.7,12.3V58.9h3.5V76h-4.5l-7.7-12.3V76H55.1z"/>
	<path d="M75.5,76V58.9H79V76H75.5z"/>
	<path d="M82.3,73.6l2.5-2.3c0.5,0.7,1.1,1.2,1.8,1.5c0.7,0.4,1.3,0.6,2,0.6c0.7,0,1.2-0.2,1.6-0.5c0.4-0.4,0.6-0.8,0.6-1.5   c0-0.8-0.4-1.4-1.2-1.8c-0.8-0.4-1.7-0.8-2.7-1.3c-1-0.5-1.9-1.1-2.7-1.8c-0.8-0.7-1.2-1.8-1.2-3.2c0-0.7,0.1-1.3,0.4-1.9   c0.3-0.6,0.6-1.1,1.1-1.6c0.5-0.4,1.1-0.8,1.7-1.1c0.7-0.3,1.4-0.4,2.2-0.4c1.3,0,2.4,0.3,3.4,0.8c1,0.5,1.9,1.2,2.6,2.1l-2.5,2.3   c-0.5-0.7-1-1.2-1.6-1.6c-0.6-0.4-1.2-0.6-1.8-0.6c-0.6,0-1.1,0.2-1.4,0.5s-0.5,0.8-0.5,1.3c0,0.8,0.4,1.4,1.2,1.8   c0.8,0.4,1.7,0.8,2.7,1.3c1,0.5,1.9,1.1,2.7,1.8c0.8,0.8,1.2,1.8,1.2,3.3c0,0.8-0.2,1.5-0.5,2.2c-0.3,0.6-0.7,1.2-1.2,1.6   c-0.5,0.4-1.1,0.8-1.8,1c-0.7,0.2-1.4,0.4-2.2,0.4c-1.4,0-2.7-0.3-3.7-0.8C83.9,75.2,83,74.5,82.3,73.6z"/>
	<path d="M96.1,62v-3.2h14.1V62h-5.3v14h-3.5V62H96.1z"/>
	<path d="M113.2,76V58.9h10v3h-6.5v4h5.5v3h-5.5V73h6.5v3H113.2z M116.7,57.4l-3.2-3.3h3.6l2.8,3.3H116.7z"/>
	<path d="M127.2,76V58.9h5.2c1.9,0,3.4,0.5,4.5,1.4c1.1,0.9,1.6,2.2,1.6,3.7c0,1-0.2,1.9-0.7,2.7c-0.5,0.8-1.2,1.3-2,1.8l5.4,7.6   h-4.2l-4.6-6.9h-1.8V76H127.2z M132.7,61.8h-2v4.3h2c0.7,0,1.3-0.2,1.7-0.6c0.4-0.4,0.6-0.9,0.6-1.6c0-0.7-0.2-1.2-0.6-1.5   C134,62,133.4,61.8,132.7,61.8z"/>
	<path d="M143.4,76V58.9h10v3h-6.5v4h5.5v3h-5.5V73h6.5v3H143.4z"/>
	<path d="M32.7,99.1c1,0,1.8-0.2,2.6-0.6c0.8-0.4,1.4-1,1.9-1.7l2.7,2.1c-0.8,1.1-1.8,1.9-3,2.5c-1.2,0.6-2.6,1-4.2,1   c-1.3,0-2.6-0.2-3.7-0.7c-1.1-0.5-2.1-1.1-2.9-2c-0.8-0.8-1.4-1.8-1.9-2.9c-0.4-1.1-0.7-2.3-0.7-3.5c0-1.2,0.2-2.4,0.7-3.5   c0.4-1.1,1.1-2.1,1.9-2.9c0.8-0.8,1.8-1.5,2.9-2c1.1-0.5,2.4-0.7,3.7-0.7c1.6,0,2.9,0.3,4.2,1c1.2,0.6,2.3,1.5,3,2.5l-2.7,2.1   c-0.5-0.7-1.1-1.3-1.9-1.7c-0.8-0.4-1.6-0.6-2.6-0.6c-0.8,0-1.5,0.2-2.2,0.5c-0.7,0.3-1.3,0.7-1.8,1.2c-0.5,0.5-0.9,1.1-1.1,1.8   c-0.3,0.7-0.4,1.5-0.4,2.3c0,0.8,0.1,1.6,0.4,2.3c0.3,0.7,0.7,1.3,1.1,1.8c0.5,0.5,1.1,0.9,1.8,1.2C31.1,99,31.9,99.1,32.7,99.1z"/>
	<path d="M42.9,101.9V84.8h3.5v6.8H55v-6.8h3.5v17.1H55v-7.2h-8.6v7.2H42.9z"/>
	<path d="M61.1,101.9l6.5-17.1h4.6l6.5,17.1H75l-1.6-4.5h-6.9l-1.6,4.5H61.1z M67.6,94.5h4.7L69.9,88L67.6,94.5z"/>
	<path d="M81.3,101.9V84.8h5.2c1.9,0,3.4,0.5,4.5,1.4c1.1,0.9,1.6,2.2,1.6,3.7c0,1-0.2,1.9-0.7,2.7c-0.5,0.8-1.2,1.3-2,1.8l5.4,7.6   h-4.2L86.6,95h-1.8v6.9H81.3z M86.8,87.7h-2V92h2c0.7,0,1.3-0.2,1.7-0.6c0.4-0.4,0.6-0.9,0.6-1.6c0-0.7-0.2-1.2-0.6-1.5   C88.1,87.9,87.5,87.7,86.8,87.7z"/>
	<path d="M105.2,99.1c0.8,0,1.5-0.1,2.2-0.4c0.7-0.3,1.3-0.6,1.8-1.1v-2.9h-4.4v-3.2h7.8v7.3c-0.8,1.1-1.8,1.9-3.1,2.5   c-1.3,0.6-2.7,1-4.3,1c-1.4,0-2.7-0.2-3.8-0.7c-1.2-0.5-2.1-1.1-3-2c-0.8-0.8-1.5-1.8-1.9-2.9c-0.5-1.1-0.7-2.3-0.7-3.5   c0-1.2,0.2-2.4,0.7-3.5c0.4-1.1,1.1-2.1,1.9-2.9c0.8-0.8,1.8-1.5,2.9-2c1.1-0.5,2.4-0.7,3.7-0.7c1.6,0,2.9,0.3,4.2,1   c1.2,0.6,2.3,1.5,3,2.5l-2.7,2.1c-0.5-0.7-1.1-1.3-1.9-1.7c-0.8-0.4-1.6-0.6-2.6-0.6c-0.8,0-1.5,0.2-2.2,0.5   c-0.7,0.3-1.3,0.7-1.8,1.2c-0.5,0.5-0.9,1.1-1.1,1.8c-0.3,0.7-0.4,1.5-0.4,2.3c0,0.8,0.1,1.6,0.4,2.3c0.3,0.7,0.7,1.3,1.2,1.8   c0.5,0.5,1.1,0.9,1.8,1.2C103.6,99,104.4,99.1,105.2,99.1z"/>
	<path d="M116.5,101.9V84.8h10v3H120v4h5.5v3H120V99h6.5v3H116.5z M123.1,83.3h-3.2l2.8-3.3h3.6L123.1,83.3z"/>
	<path d="M136.9,101.9V84.8h6.7c1.4,0,2.6,0.2,3.7,0.7c1.1,0.5,2.1,1.1,2.9,1.9c0.8,0.8,1.4,1.7,1.8,2.7c0.4,1,0.7,2.1,0.7,3.3   c0,1.2-0.2,2.3-0.7,3.3c-0.4,1-1.1,1.9-1.8,2.7c-0.8,0.8-1.8,1.4-2.9,1.9c-1.1,0.5-2.4,0.7-3.7,0.7H136.9z M143.7,87.9h-3.3v10.8   h3.3c0.8,0,1.5-0.1,2.2-0.4c0.7-0.3,1.2-0.7,1.7-1.2s0.9-1.1,1.1-1.7c0.3-0.7,0.4-1.4,0.4-2.1c0-0.8-0.1-1.5-0.4-2.1   c-0.3-0.7-0.7-1.2-1.1-1.7c-0.5-0.5-1.1-0.9-1.7-1.1C145.3,88.1,144.5,87.9,143.7,87.9z"/>
	<path d="M156.2,101.9V84.8h10v3h-6.5v4h5.5v3h-5.5V99h6.5v3H156.2z"/>
	<path d="M176.6,101.9V84.8h3.5v14h6.5v3.2H176.6z"/>
	<path d="M190.3,91.8h-2.7l-0.4-7.1h3.5L190.3,91.8z"/>
	<path d="M194.5,101.9V84.8h10v3H198v4h5.5v3H198V99h6.5v3H194.5z M201,83.3h-3.2l2.8-3.3h3.6L201,83.3z"/>
	<path d="M216,99.1c0.8,0,1.5-0.1,2.2-0.4c0.7-0.3,1.3-0.6,1.8-1.1v-2.9h-4.4v-3.2h7.8v7.3c-0.8,1.1-1.8,1.9-3.1,2.5   c-1.3,0.6-2.7,1-4.3,1c-1.4,0-2.7-0.2-3.8-0.7c-1.2-0.5-2.1-1.1-3-2c-0.8-0.8-1.5-1.8-1.9-2.9c-0.5-1.1-0.7-2.3-0.7-3.5   c0-1.2,0.2-2.4,0.7-3.5c0.4-1.1,1.1-2.1,1.9-2.9c0.8-0.8,1.8-1.5,2.9-2c1.1-0.5,2.4-0.7,3.7-0.7c1.6,0,2.9,0.3,4.2,1   c1.2,0.6,2.3,1.5,3,2.5l-2.7,2.1c-0.5-0.7-1.1-1.3-1.9-1.7c-0.8-0.4-1.6-0.6-2.6-0.6c-0.8,0-1.5,0.2-2.2,0.5   c-0.7,0.3-1.3,0.7-1.8,1.2c-0.5,0.5-0.9,1.1-1.1,1.8c-0.3,0.7-0.4,1.5-0.4,2.3c0,0.8,0.1,1.6,0.4,2.3c0.3,0.7,0.7,1.3,1.2,1.8   c0.5,0.5,1.1,0.9,1.8,1.2C214.4,99,215.2,99.1,216,99.1z"/>
	<path d="M225.1,101.9l6.5-17.1h4.6l6.5,17.1h-3.7l-1.6-4.5h-6.9l-1.6,4.5H225.1z M231.5,94.5h4.7l-2.4-6.4L231.5,94.5z"/>
	<path d="M245.3,101.9V84.8h3.5v14h6.5v3.2H245.3z"/>
	<path d="M258.3,101.9V84.8h3.5v17.1H258.3z"/>
	<path d="M264.9,87.9v-3.2h14.1v3.2h-5.3v14h-3.5v-14H264.9z"/>
	<path d="M282,101.9V84.8h10v3h-6.5v4h5.5v3h-5.5V99h6.5v3H282z M288.5,83.3h-3.2l2.8-3.3h3.6L288.5,83.3z"/>
	<path d="M25,127.8v-17.1h10v3h-6.5v4H34v3h-5.5v4.3H35v3H25z"/>
	<path d="M39,127.8v-17.1h4.5l7.7,12.3v-12.3h3.5v17.1h-4.5l-7.7-12.3v12.3H39z"/>
	<path d="M57.7,113.8v-3.2h14.1v3.2h-5.3v14H63v-14H57.7z"/>
	<path d="M74.8,127.8v-17.1h5.2c1.9,0,3.4,0.5,4.5,1.4c1.1,0.9,1.6,2.2,1.6,3.7c0,1-0.2,1.9-0.7,2.7c-0.5,0.8-1.2,1.3-2,1.8l5.4,7.6   h-4.2l-4.6-6.9h-1.8v6.9H74.8z M80.3,113.6h-2v4.3h2c0.7,0,1.3-0.2,1.7-0.6c0.4-0.4,0.6-0.9,0.6-1.6c0-0.7-0.2-1.2-0.6-1.5   C81.6,113.8,81,113.6,80.3,113.6z"/>
	<path d="M91,127.8v-17.1h10v3h-6.5v4h5.5v3h-5.5v4.3h6.5v3H91z"/>
	<path d="M111.4,127.8v-17.1h3.5v14h6.5v3.2H111.4z"/>
	<path d="M124.4,127.8v-17.1h10v3h-6.5v4h5.5v3h-5.5v4.3h6.5v3H124.4z"/>
	<path d="M136.9,125.5l2.5-2.3c0.5,0.7,1.1,1.2,1.8,1.5c0.7,0.4,1.3,0.6,2,0.6c0.7,0,1.2-0.2,1.6-0.5c0.4-0.4,0.6-0.8,0.6-1.5   c0-0.8-0.4-1.4-1.2-1.8c-0.8-0.4-1.7-0.8-2.7-1.3c-1-0.5-1.9-1.1-2.7-1.8c-0.8-0.7-1.2-1.8-1.2-3.2c0-0.7,0.1-1.3,0.4-1.9   c0.3-0.6,0.6-1.1,1.1-1.6c0.5-0.4,1.1-0.8,1.7-1.1c0.7-0.3,1.4-0.4,2.2-0.4c1.3,0,2.4,0.3,3.4,0.8c1,0.5,1.9,1.2,2.6,2.1l-2.5,2.3   c-0.5-0.7-1-1.2-1.6-1.6c-0.6-0.4-1.2-0.6-1.8-0.6c-0.6,0-1.1,0.2-1.4,0.5s-0.5,0.8-0.5,1.3c0,0.8,0.4,1.4,1.2,1.8   c0.8,0.4,1.7,0.8,2.7,1.3c1,0.5,1.9,1.1,2.7,1.8c0.8,0.8,1.2,1.8,1.2,3.3c0,0.8-0.2,1.5-0.5,2.2c-0.3,0.6-0.7,1.2-1.2,1.6   c-0.5,0.4-1.1,0.8-1.8,1c-0.7,0.2-1.4,0.4-2.2,0.4c-1.4,0-2.7-0.3-3.7-0.8C138.6,127.1,137.7,126.3,136.9,125.5z"/>
	<path d="M159,127.8v-17.1h10v3h-6.5v4h5.5v3h-5.5v7.3H159z"/>
	<path d="M172.1,127.8v-17.1h10v3h-6.5v4h5.5v3h-5.5v4.3h6.5v3H172.1z"/>
	<path d="M186.1,127.8v-17.1h4.4l4.1,7.1l4.1-7.1h4.4v17.1h-3.5v-12.2l-3.8,6.3h-2.5l-3.8-6.3v12.2H186.1z"/>
	<path d="M207.9,127.8v-17.1h4.4l4.1,7.1l4.1-7.1h4.4v17.1h-3.5v-12.2l-3.8,6.3h-2.5l-3.8-6.3v12.2H207.9z"/>
	<path d="M229.8,127.8v-17.1h10v3h-6.5v4h5.5v3h-5.5v4.3h6.5v3H229.8z"/>
	<path d="M242.2,125.5l2.5-2.3c0.5,0.7,1.1,1.2,1.8,1.5c0.7,0.4,1.3,0.6,2,0.6c0.7,0,1.2-0.2,1.6-0.5c0.4-0.4,0.6-0.8,0.6-1.5   c0-0.8-0.4-1.4-1.2-1.8c-0.8-0.4-1.7-0.8-2.7-1.3c-1-0.5-1.9-1.1-2.7-1.8c-0.8-0.7-1.2-1.8-1.2-3.2c0-0.7,0.1-1.3,0.4-1.9   c0.3-0.6,0.6-1.1,1.1-1.6s1.1-0.8,1.7-1.1c0.7-0.3,1.4-0.4,2.2-0.4c1.3,0,2.4,0.3,3.4,0.8c1,0.5,1.9,1.2,2.6,2.1l-2.5,2.3   c-0.5-0.7-1-1.2-1.6-1.6c-0.6-0.4-1.2-0.6-1.8-0.6c-0.6,0-1.1,0.2-1.4,0.5c-0.4,0.3-0.5,0.8-0.5,1.3c0,0.8,0.4,1.4,1.2,1.8   c0.8,0.4,1.7,0.8,2.7,1.3c1,0.5,1.9,1.1,2.7,1.8c0.8,0.8,1.2,1.8,1.2,3.3c0,0.8-0.2,1.5-0.5,2.2c-0.3,0.6-0.7,1.2-1.2,1.6   c-0.5,0.4-1.1,0.8-1.8,1c-0.7,0.2-1.4,0.4-2.2,0.4c-1.4,0-2.7-0.3-3.7-0.8S243,126.3,242.2,125.5z"/>
	<path d="M264.3,127.8v-17.1h10v3h-6.5v4h5.5v3h-5.5v4.3h6.5v3H264.3z"/>
	<path d="M277,113.8v-3.2H291v3.2h-5.3v14h-3.5v-14H277z"/>
	<path d="M25,153.7v-17.1h3.5v14H35v3.2H25z"/>
	<path d="M38.1,153.7v-17.1h10v3h-6.5v4h5.5v3h-5.5v4.3h6.5v3H38.1z"/>
	<path d="M50.6,151.4l2.5-2.3c0.5,0.7,1.1,1.2,1.8,1.5c0.7,0.4,1.3,0.6,2,0.6c0.7,0,1.2-0.2,1.6-0.5c0.4-0.4,0.6-0.8,0.6-1.5   c0-0.8-0.4-1.4-1.2-1.8c-0.8-0.4-1.7-0.8-2.7-1.3c-1-0.5-1.9-1.1-2.7-1.8c-0.8-0.7-1.2-1.8-1.2-3.2c0-0.7,0.1-1.3,0.4-1.9   c0.3-0.6,0.6-1.1,1.1-1.6c0.5-0.4,1.1-0.8,1.7-1.1c0.7-0.3,1.4-0.4,2.2-0.4c1.3,0,2.4,0.3,3.4,0.8c1,0.5,1.9,1.2,2.6,2.1l-2.5,2.3   c-0.5-0.7-1-1.2-1.6-1.6c-0.6-0.4-1.2-0.6-1.8-0.6c-0.6,0-1.1,0.2-1.4,0.5s-0.5,0.8-0.5,1.3c0,0.8,0.4,1.4,1.2,1.8   c0.8,0.4,1.7,0.8,2.7,1.3c1,0.5,1.9,1.1,2.7,1.8c0.8,0.8,1.2,1.8,1.2,3.3c0,0.8-0.2,1.5-0.5,2.2c-0.3,0.6-0.7,1.2-1.2,1.6   c-0.5,0.4-1.1,0.8-1.8,1c-0.7,0.2-1.4,0.4-2.2,0.4c-1.4,0-2.7-0.3-3.7-0.8C52.2,153,51.3,152.3,50.6,151.4z"/>
	<path d="M72.6,153.7v-17.1h3.5v6.8h8.6v-6.8h3.5v17.1h-3.5v-7.2h-8.6v7.2H72.6z"/>
	<path d="M100.7,136.1c1.3,0,2.6,0.2,3.7,0.7c1.1,0.5,2.1,1.1,2.9,2c0.8,0.8,1.4,1.8,1.9,2.9c0.4,1.1,0.7,2.3,0.7,3.5   c0,1.2-0.2,2.4-0.7,3.5c-0.4,1.1-1.1,2.1-1.9,2.9c-0.8,0.8-1.8,1.5-2.9,2c-1.1,0.5-2.3,0.7-3.7,0.7c-1.3,0-2.6-0.2-3.7-0.7   c-1.1-0.5-2.1-1.1-2.9-2c-0.8-0.8-1.4-1.8-1.9-2.9c-0.4-1.1-0.7-2.3-0.7-3.5c0-1.2,0.2-2.4,0.7-3.5c0.4-1.1,1.1-2.1,1.9-2.9   c0.8-0.8,1.8-1.5,2.9-2C98.1,136.3,99.4,136.1,100.7,136.1z M100.7,151c0.8,0,1.5-0.2,2.2-0.5c0.7-0.3,1.3-0.7,1.7-1.2   c0.5-0.5,0.9-1.1,1.1-1.8c0.3-0.7,0.4-1.5,0.4-2.3c0-0.8-0.1-1.6-0.4-2.3c-0.3-0.7-0.7-1.3-1.1-1.8c-0.5-0.5-1.1-0.9-1.7-1.2   c-0.7-0.3-1.4-0.5-2.2-0.5c-0.8,0-1.5,0.2-2.2,0.5c-0.7,0.3-1.3,0.7-1.8,1.2c-0.5,0.5-0.9,1.1-1.1,1.8c-0.3,0.7-0.4,1.5-0.4,2.3   c0,0.8,0.1,1.6,0.4,2.3c0.3,0.7,0.7,1.3,1.1,1.8c0.5,0.5,1.1,0.9,1.8,1.2S99.9,151,100.7,151z"/>
	<path d="M113.1,153.7v-17.1h4.4l4.1,7.1l4.1-7.1h4.4v17.1h-3.5v-12.2l-3.8,6.3h-2.5l-3.8-6.3v12.2H113.1z"/>
	<path d="M134.9,153.7v-17.1h4.4l4.1,7.1l4.1-7.1h4.4v17.1h-3.5v-12.2l-3.8,6.3h-2.5l-3.8-6.3v12.2H134.9z"/>
	<path d="M156.8,153.7v-17.1h10v3h-6.5v4h5.5v3h-5.5v4.3h6.5v3H156.8z"/>
	<path d="M169.3,151.4l2.5-2.3c0.5,0.7,1.1,1.2,1.8,1.5c0.7,0.4,1.3,0.6,2,0.6c0.7,0,1.2-0.2,1.6-0.5c0.4-0.4,0.6-0.8,0.6-1.5   c0-0.8-0.4-1.4-1.2-1.8c-0.8-0.4-1.7-0.8-2.7-1.3c-1-0.5-1.9-1.1-2.7-1.8c-0.8-0.7-1.2-1.8-1.2-3.2c0-0.7,0.1-1.3,0.4-1.9   c0.3-0.6,0.6-1.1,1.1-1.6c0.5-0.4,1.1-0.8,1.7-1.1c0.7-0.3,1.4-0.4,2.2-0.4c1.3,0,2.4,0.3,3.4,0.8c1,0.5,1.9,1.2,2.6,2.1l-2.5,2.3   c-0.5-0.7-1-1.2-1.6-1.6c-0.6-0.4-1.2-0.6-1.8-0.6c-0.6,0-1.1,0.2-1.4,0.5c-0.4,0.3-0.5,0.8-0.5,1.3c0,0.8,0.4,1.4,1.2,1.8   c0.8,0.4,1.7,0.8,2.7,1.3c1,0.5,1.9,1.1,2.7,1.8c0.8,0.8,1.2,1.8,1.2,3.3c0,0.8-0.2,1.5-0.5,2.2c-0.3,0.6-0.7,1.2-1.2,1.6   c-0.5,0.4-1.1,0.8-1.8,1s-1.4,0.4-2.2,0.4c-1.4,0-2.7-0.3-3.7-0.8C170.9,153,170,152.3,169.3,151.4z"/>
	<path d="M185.4,157.7h-2.9l2.2-7.3h3.5L185.4,157.7z"/>
	<path d="M25,179.6v-17.1h6.7c1.4,0,2.6,0.2,3.7,0.7c1.1,0.5,2.1,1.1,2.9,1.9c0.8,0.8,1.4,1.7,1.8,2.7c0.4,1,0.7,2.1,0.7,3.3   c0,1.2-0.2,2.3-0.7,3.3c-0.4,1-1.1,1.9-1.8,2.7c-0.8,0.8-1.8,1.4-2.9,1.9c-1.1,0.5-2.4,0.7-3.7,0.7H25z M31.8,165.7h-3.3v10.8h3.3   c0.8,0,1.5-0.1,2.2-0.4c0.7-0.3,1.2-0.7,1.7-1.2c0.5-0.5,0.9-1.1,1.1-1.7c0.3-0.7,0.4-1.4,0.4-2.1c0-0.8-0.1-1.5-0.4-2.1   c-0.3-0.7-0.7-1.2-1.1-1.7c-0.5-0.5-1.1-0.9-1.7-1.1C33.3,165.8,32.6,165.7,31.8,165.7z"/>
	<path d="M44.2,179.6v-17.1h10v3h-6.5v4h5.5v3h-5.5v4.3h6.5v3H44.2z"/>
	<path d="M64.6,179.6v-17.1h3.5v14h6.5v3.2H64.6z"/>
	<path d="M76.3,179.6l6.5-17.1h4.6l6.5,17.1h-3.7l-1.6-4.5h-6.9l-1.6,4.5H76.3z M82.7,172.2h4.7l-2.4-6.4L82.7,172.2z"/>
	<path d="M102.8,179.6v-17.1h6.7c1.4,0,2.6,0.2,3.7,0.7c1.1,0.5,2.1,1.1,2.9,1.9c0.8,0.8,1.4,1.7,1.8,2.7c0.4,1,0.7,2.1,0.7,3.3   c0,1.2-0.2,2.3-0.7,3.3c-0.4,1-1.1,1.9-1.8,2.7c-0.8,0.8-1.8,1.4-2.9,1.9c-1.1,0.5-2.4,0.7-3.7,0.7H102.8z M109.6,165.7h-3.3v10.8   h3.3c0.8,0,1.5-0.1,2.2-0.4c0.7-0.3,1.2-0.7,1.7-1.2c0.5-0.5,0.9-1.1,1.1-1.7c0.3-0.7,0.4-1.4,0.4-2.1c0-0.8-0.1-1.5-0.4-2.1   c-0.3-0.7-0.7-1.2-1.1-1.7c-0.5-0.5-1.1-0.9-1.7-1.1C111.1,165.8,110.4,165.7,109.6,165.7z"/>
	<path d="M122,179.6v-17.1h3.5v17.1H122z"/>
	<path d="M128.2,162.5h3.7l5.1,13.4l5.1-13.4h3.7l-6.5,17.1h-4.6L128.2,162.5z"/>
	<path d="M148.3,179.6v-17.1h10v3h-6.5v4h5.5v3h-5.5v4.3h6.5v3H148.3z"/>
	<path d="M162.4,179.6v-17.1h5.2c1.9,0,3.4,0.5,4.5,1.4c1.1,0.9,1.6,2.2,1.6,3.7c0,1-0.2,1.9-0.7,2.7c-0.5,0.8-1.2,1.3-2,1.8   l5.4,7.6h-4.2l-4.6-6.9h-1.8v6.9H162.4z M167.8,165.5h-2v4.3h2c0.7,0,1.3-0.2,1.7-0.6c0.4-0.4,0.6-0.9,0.6-1.6   c0-0.7-0.2-1.2-0.6-1.5C169.1,165.7,168.6,165.5,167.8,165.5z"/>
	<path d="M176.9,177.3l2.5-2.3c0.5,0.7,1.1,1.2,1.8,1.5c0.7,0.4,1.3,0.6,2,0.6c0.7,0,1.2-0.2,1.6-0.5c0.4-0.4,0.6-0.8,0.6-1.5   c0-0.8-0.4-1.4-1.2-1.8c-0.8-0.4-1.7-0.8-2.7-1.3c-1-0.5-1.9-1.1-2.7-1.8c-0.8-0.7-1.2-1.8-1.2-3.2c0-0.7,0.1-1.3,0.4-1.9   c0.3-0.6,0.6-1.1,1.1-1.6s1.1-0.8,1.7-1.1c0.7-0.3,1.4-0.4,2.2-0.4c1.3,0,2.4,0.3,3.4,0.8c1,0.5,1.9,1.2,2.6,2.1l-2.5,2.3   c-0.5-0.7-1-1.2-1.6-1.6c-0.6-0.4-1.2-0.6-1.8-0.6c-0.6,0-1.1,0.2-1.4,0.5c-0.4,0.3-0.5,0.8-0.5,1.3c0,0.8,0.4,1.4,1.2,1.8   c0.8,0.4,1.7,0.8,2.7,1.3c1,0.5,1.9,1.1,2.7,1.8c0.8,0.8,1.2,1.8,1.2,3.3c0,0.8-0.2,1.5-0.5,2.2c-0.3,0.6-0.7,1.2-1.2,1.6   c-0.5,0.4-1.1,0.8-1.8,1c-0.7,0.2-1.4,0.4-2.2,0.4c-1.4,0-2.7-0.3-3.7-0.8C178.6,178.9,177.7,178.2,176.9,177.3z"/>
	<path d="M192.6,179.6v-17.1h3.5v17.1H192.6z"/>
	<path d="M199.2,165.7v-3.2h14.1v3.2h-5.3v14h-3.5v-14H199.2z"/>
	<path d="M216.3,179.6v-17.1h10v3h-6.5v4h5.5v3h-5.5v4.3h6.5v3H216.3z M222.8,161h-3.2l2.8-3.3h3.6L222.8,161z"/>
	<path d="M236.7,179.6v-17.1h10v3h-6.5v4h5.5v3h-5.5v4.3h6.5v3H236.7z"/>
	<path d="M249.3,165.7v-3.2h14.1v3.2h-5.3v14h-3.5v-14H249.3z"/>
	<path d="M272.8,179.6v-17.1h6.7c1.4,0,2.6,0.2,3.7,0.7c1.1,0.5,2.1,1.1,2.9,1.9c0.8,0.8,1.4,1.7,1.8,2.7c0.4,1,0.7,2.1,0.7,3.3   c0,1.2-0.2,2.3-0.7,3.3c-0.4,1-1.1,1.9-1.8,2.7c-0.8,0.8-1.8,1.4-2.9,1.9c-1.1,0.5-2.4,0.7-3.7,0.7H272.8z M279.6,165.7h-3.3v10.8   h3.3c0.8,0,1.5-0.1,2.2-0.4c0.7-0.3,1.2-0.7,1.7-1.2c0.5-0.5,0.9-1.1,1.1-1.7c0.3-0.7,0.4-1.4,0.4-2.1c0-0.8-0.1-1.5-0.4-2.1   c-0.3-0.7-0.7-1.2-1.1-1.7c-0.5-0.5-1.1-0.9-1.7-1.1C281.1,165.8,280.4,165.7,279.6,165.7z"/>
	<path d="M292,179.6v-17.1h10v3h-6.5v4h5.5v3h-5.5v4.3h6.5v3H292z"/>
	<path d="M25,205.6v-17.1h3.5v14H35v3.2H25z"/>
	<path d="M38.7,195.5H36l-0.4-7.1h3.5L38.7,195.5z"/>
	<path d="M42.9,205.6v-17.1h10v3h-6.5v4h5.5v3h-5.5v4.3h6.5v3H42.9z M49.5,186.9h-3.2l2.8-3.3h3.6L49.5,186.9z"/>
	<path d="M64.5,202.8c0.8,0,1.5-0.1,2.2-0.4c0.7-0.3,1.3-0.6,1.8-1.1v-2.9h-4.4v-3.2h7.8v7.3c-0.8,1.1-1.8,1.9-3.1,2.5   c-1.3,0.6-2.7,1-4.3,1c-1.4,0-2.7-0.2-3.8-0.7c-1.2-0.5-2.1-1.1-3-2c-0.8-0.8-1.5-1.8-1.9-2.9c-0.5-1.1-0.7-2.3-0.7-3.5   c0-1.2,0.2-2.4,0.7-3.5c0.4-1.1,1.1-2.1,1.9-2.9c0.8-0.8,1.8-1.5,2.9-2c1.1-0.5,2.4-0.7,3.7-0.7c1.6,0,2.9,0.3,4.2,1   c1.2,0.6,2.3,1.5,3,2.5l-2.7,2.1c-0.5-0.7-1.1-1.3-1.9-1.7c-0.8-0.4-1.6-0.6-2.6-0.6c-0.8,0-1.5,0.2-2.2,0.5s-1.3,0.7-1.8,1.2   c-0.5,0.5-0.9,1.1-1.1,1.8c-0.3,0.7-0.4,1.5-0.4,2.3c0,0.8,0.1,1.6,0.4,2.3c0.3,0.7,0.7,1.3,1.2,1.8c0.5,0.5,1.1,0.9,1.8,1.2   C62.9,202.6,63.6,202.8,64.5,202.8z"/>
	<path d="M73.5,205.6l6.5-17.1h4.6l6.5,17.1h-3.7l-1.6-4.5h-6.9l-1.6,4.5H73.5z M80,198.1h4.7l-2.4-6.4L80,198.1z"/>
	<path d="M93.7,205.6v-17.1h3.5v14h6.5v3.2H93.7z"/>
	<path d="M106.8,205.6v-17.1h3.5v17.1H106.8z"/>
	<path d="M113.3,191.6v-3.2h14.1v3.2h-5.3v14h-3.5v-14H113.3z"/>
	<path d="M130.4,205.6v-17.1h10v3h-6.5v4h5.5v3h-5.5v4.3h6.5v3H130.4z M137,186.9h-3.2l2.8-3.3h3.6L137,186.9z"/>
	<path d="M150.8,205.6v-17.1h6.7c1.4,0,2.6,0.2,3.7,0.7c1.1,0.5,2.1,1.1,2.9,1.9c0.8,0.8,1.4,1.7,1.8,2.7c0.4,1,0.7,2.1,0.7,3.3   c0,1.2-0.2,2.3-0.7,3.3c-0.4,1-1.1,1.9-1.8,2.7c-0.8,0.8-1.8,1.4-2.9,1.9c-1.1,0.5-2.4,0.7-3.7,0.7H150.8z M157.6,191.6h-3.3v10.8   h3.3c0.8,0,1.5-0.1,2.2-0.4c0.7-0.3,1.2-0.7,1.7-1.2s0.9-1.1,1.1-1.7c0.3-0.7,0.4-1.4,0.4-2.1c0-0.8-0.1-1.5-0.4-2.1   c-0.3-0.7-0.7-1.2-1.1-1.7c-0.5-0.5-1.1-0.9-1.7-1.1C159.2,191.7,158.4,191.6,157.6,191.6z"/>
	<path d="M170,205.6v-17.1h10v3h-6.5v4h5.5v3h-5.5v4.3h6.5v3H170z"/>
	<path d="M182.5,203.2l2.5-2.3c0.5,0.7,1.1,1.2,1.8,1.5c0.7,0.4,1.3,0.6,2,0.6c0.7,0,1.2-0.2,1.6-0.5c0.4-0.3,0.6-0.8,0.6-1.5   c0-0.8-0.4-1.4-1.2-1.8c-0.8-0.4-1.7-0.8-2.7-1.3c-1-0.5-1.9-1.1-2.7-1.8c-0.8-0.7-1.2-1.8-1.2-3.2c0-0.7,0.1-1.3,0.4-1.9   c0.3-0.6,0.6-1.1,1.1-1.6c0.5-0.4,1.1-0.8,1.7-1.1c0.7-0.3,1.4-0.4,2.2-0.4c1.3,0,2.4,0.3,3.4,0.8c1,0.5,1.9,1.2,2.6,2.1l-2.5,2.3   c-0.5-0.7-1-1.2-1.6-1.6c-0.6-0.4-1.2-0.6-1.8-0.6c-0.6,0-1.1,0.2-1.4,0.5c-0.4,0.3-0.5,0.8-0.5,1.3c0,0.8,0.4,1.4,1.2,1.8   c0.8,0.4,1.7,0.8,2.7,1.3c1,0.5,1.9,1.1,2.7,1.8c0.8,0.8,1.2,1.8,1.2,3.3c0,0.8-0.2,1.5-0.5,2.2c-0.3,0.6-0.7,1.2-1.2,1.6   c-0.5,0.4-1.1,0.8-1.8,1c-0.7,0.2-1.4,0.4-2.2,0.4c-1.4,0-2.7-0.3-3.7-0.8C184.2,204.8,183.3,204.1,182.5,203.2z"/>
	<path d="M212.3,202.8c1,0,1.8-0.2,2.6-0.6c0.8-0.4,1.4-1,1.9-1.7l2.7,2.1c-0.8,1.1-1.8,1.9-3,2.5c-1.2,0.6-2.6,1-4.2,1   c-1.3,0-2.6-0.2-3.7-0.7c-1.1-0.5-2.1-1.1-2.9-2c-0.8-0.8-1.4-1.8-1.9-2.9c-0.4-1.1-0.7-2.3-0.7-3.5c0-1.2,0.2-2.4,0.7-3.5   c0.4-1.1,1.1-2.1,1.9-2.9c0.8-0.8,1.8-1.5,2.9-2c1.1-0.5,2.4-0.7,3.7-0.7c1.6,0,2.9,0.3,4.2,1c1.2,0.6,2.3,1.5,3,2.5l-2.7,2.1   c-0.5-0.7-1.1-1.3-1.9-1.7c-0.8-0.4-1.6-0.6-2.6-0.6c-0.8,0-1.5,0.2-2.2,0.5c-0.7,0.3-1.3,0.7-1.8,1.2c-0.5,0.5-0.9,1.1-1.1,1.8   c-0.3,0.7-0.4,1.5-0.4,2.3c0,0.8,0.1,1.6,0.4,2.3c0.3,0.7,0.7,1.3,1.1,1.8c0.5,0.5,1.1,0.9,1.8,1.2   C210.7,202.6,211.5,202.8,212.3,202.8z"/>
	<path d="M222.5,205.6v-17.1h3.5v6.8h8.6v-6.8h3.5v17.1h-3.5v-7.2H226v7.2H222.5z"/>
	<path d="M240.8,205.6l6.5-17.1h4.6l6.5,17.1h-3.7l-1.6-4.5h-6.9l-1.6,4.5H240.8z M247.2,198.1h4.7l-2.4-6.4L247.2,198.1z"/>
	<path d="M260.9,205.6v-17.1h4.5l7.7,12.3v-12.3h3.5v17.1h-4.5l-7.7-12.3v12.3H260.9z"/>
	<path d="M289,202.8c1,0,1.8-0.2,2.6-0.6c0.8-0.4,1.4-1,1.9-1.7l2.7,2.1c-0.8,1.1-1.8,1.9-3,2.5c-1.2,0.6-2.6,1-4.2,1   c-1.3,0-2.6-0.2-3.7-0.7c-1.1-0.5-2.1-1.1-2.9-2c-0.8-0.8-1.4-1.8-1.9-2.9c-0.4-1.1-0.7-2.3-0.7-3.5c0-1.2,0.2-2.4,0.7-3.5   c0.4-1.1,1.1-2.1,1.9-2.9c0.8-0.8,1.8-1.5,2.9-2c1.1-0.5,2.4-0.7,3.7-0.7c1.6,0,2.9,0.3,4.2,1c1.2,0.6,2.3,1.5,3,2.5l-2.7,2.1   c-0.5-0.7-1.1-1.3-1.9-1.7c-0.8-0.4-1.6-0.6-2.6-0.6c-0.8,0-1.5,0.2-2.2,0.5c-0.7,0.3-1.3,0.7-1.8,1.2c-0.5,0.5-0.9,1.1-1.1,1.8   c-0.3,0.7-0.4,1.5-0.4,2.3c0,0.8,0.1,1.6,0.4,2.3c0.3,0.7,0.7,1.3,1.1,1.8c0.5,0.5,1.1,0.9,1.8,1.2   C287.4,202.6,288.2,202.8,289,202.8z"/>
	<path d="M299.2,205.6v-17.1h10v3h-6.5v4h5.5v3h-5.5v4.3h6.5v3H299.2z"/>
	<path d="M311.7,203.2l2.5-2.3c0.5,0.7,1.1,1.2,1.8,1.5c0.7,0.4,1.3,0.6,2,0.6c0.7,0,1.2-0.2,1.6-0.5c0.4-0.3,0.6-0.8,0.6-1.5   c0-0.8-0.4-1.4-1.2-1.8c-0.8-0.4-1.7-0.8-2.7-1.3c-1-0.5-1.9-1.1-2.7-1.8c-0.8-0.7-1.2-1.8-1.2-3.2c0-0.7,0.1-1.3,0.4-1.9   c0.3-0.6,0.6-1.1,1.1-1.6c0.5-0.4,1.1-0.8,1.7-1.1c0.7-0.3,1.4-0.4,2.2-0.4c1.3,0,2.4,0.3,3.4,0.8c1,0.5,1.9,1.2,2.6,2.1l-2.5,2.3   c-0.5-0.7-1-1.2-1.6-1.6c-0.6-0.4-1.2-0.6-1.8-0.6c-0.6,0-1.1,0.2-1.4,0.5c-0.4,0.3-0.5,0.8-0.5,1.3c0,0.8,0.4,1.4,1.2,1.8   c0.8,0.4,1.7,0.8,2.7,1.3c1,0.5,1.9,1.1,2.7,1.8c0.8,0.8,1.2,1.8,1.2,3.3c0,0.8-0.2,1.5-0.5,2.2c-0.3,0.6-0.7,1.2-1.2,1.6   c-0.5,0.4-1.1,0.8-1.8,1c-0.7,0.2-1.4,0.4-2.2,0.4c-1.4,0-2.7-0.3-3.7-0.8C313.4,204.8,312.5,204.1,311.7,203.2z"/>
</g>
<path class="st1" d="M52,44.3c0.3-0.3,0.5-0.5,0.8-0.8h0c0.5-0.5,0.9-1,1.5-1.5c0.2-0.1,0.3-0.3,0.5-0.4c0,0,0-0.1,0.1-0.2  c-0.2,0.1-0.4,0.3-0.6,0.4c0,0-0.1,0,0-0.1c0.2-0.1,0.3-0.2,0.5-0.4c0,0,0,0,0,0c0,0,0,0,0-0.1c-0.6-0.1-1,0.3-1.4,0.7  c-0.1,0-0.2,0-0.2,0c-0.7,0.2-1.2,0.8-1.8,1.1c0,0,0,0,0-0.1c-0.3,0.1-0.5,0.2-0.8,0.3c-0.4,0.1-0.8,0-1.1,0  c-0.5,0.1-1.1,0.2-1.6,0.3c0,0,0,0,0,0c-0.3,0.1-0.6,0.2-0.8,0.3c0,0,0,0,0,0c0,0,0,0.1-0.1,0.1c-0.1,0.1-0.2,0.2-0.3,0.3  c-0.3,0.1-0.5,0.4-0.7,0.6c0,0,0,0-0.1,0c-0.2,0.2-0.5,0.5-0.7,0.7c0,0-0.1,0-0.1,0c0,0,0,0,0,0c0,0,0,0,0,0c0-0.1,0.1-0.1,0.1-0.2  c0-0.1,0.1-0.1,0.1-0.2c0.1-0.1,0.1-0.2,0.2-0.3c0,0,0,0,0-0.1c0,0,0,0-0.1,0c0.2-0.2,0.5-0.4,0.7-0.6c0,0,0,0,0,0c0,0-0.1,0-0.1,0  c0,0,0.1-0.1,0.1-0.1c0,0,0,0,0,0c0,0,0,0,0,0c-0.1,0-0.1,0.1-0.2,0.1c-0.1,0.1-0.2,0.3-0.4,0.3c0,0,0,0-0.1,0c0,0,0,0,0,0  c0,0,0,0,0,0c0,0,0,0,0,0c0,0,0,0,0,0c0,0,0,0,0,0c0,0,0,0,0,0c0,0,0,0,0,0c0,0,0,0,0-0.1c0,0,0,0,0,0c0,0,0-0.1,0.1-0.1  c0,0,0,0,0,0c0,0,0-0.1,0-0.1c0,0,0-0.1,0-0.1c0.1-0.1,0.2-0.2,0.3-0.3h0c0.2-0.1,0.3-0.2,0.5-0.3c0,0,0,0,0.1-0.1  c-0.3,0.1-0.5,0.2-0.7,0.3c0,0-0.1,0-0.1,0c0,0-0.1,0-0.1,0c0,0,0,0,0,0c0-0.1,0.2-0.1,0.3-0.2c0,0,0.1,0,0.1,0  c1.4-1.1,3.4-0.8,5-1.4c0.1-0.1,0.3-0.2,0.4-0.3c0.2-0.1,0.4-0.3,0.7-0.4c0.4-0.3,0.6-0.6,0.8-1c0,0,0-0.1,0-0.1  c-0.6,0.6-1.2,1.1-2,1.5c-0.9,0.5-2,0.4-2.9,0.5c0-0.1,0.1-0.1,0.2-0.1c0-0.1,0.1-0.2,0.2-0.3c0,0,0.1,0,0.1,0c0,0,0-0.1,0.1-0.1  c0.1,0,0.2,0,0.2,0c-0.1-0.2-0.4,0.1-0.6,0c0.1-0.1,0-0.2,0.1-0.3c0,0,0.1,0,0.2,0c0-0.1,0.1-0.2,0.1-0.2c0.7-0.4,1.3-0.7,1.9-1.1  c-0.1,0-0.2,0.1-0.4,0c0.1,0,0-0.1,0.1-0.1c0.5-0.1,0.9-0.4,1.4-0.6c-0.2,0-0.3,0.1-0.5,0c0.1,0,0.1-0.1,0.3-0.1c0,0,0-0.1,0-0.1  s0,0,0.1,0c0,0-0.1,0-0.1,0c0-0.1,0.2,0,0.3-0.1c0,0-0.1,0-0.1,0c0.1-0.2,0.4-0.2,0.6-0.3c0-0.1-0.2,0-0.2-0.1c0,0,0,0,0.1,0  c0,0,0,0-0.1,0c-0.1,0,0-0.1,0-0.2c0.3-0.3,0.3-0.7,0.4-1.1c0,0-0.1,0-0.1,0c-0.4,0.5-1.2,0.7-1.8,0.8c0,0-0.2,0-0.2,0  c-0.2,0.1-0.5,0.1-0.8,0c-0.2-0.1-0.3-0.2-0.4-0.4c-0.4-0.2-0.7-0.4-1.1-0.5c-1.1-0.4-2.3-0.5-3.4-0.5c0.5-0.3,1-0.3,1.6-0.4  c0.8-0.2,1.5-0.5,2.3-0.4c-0.1,0-0.3,0-0.4,0c-0.6,0-1.2,0.1-1.9,0.3c-0.4,0.1-0.8,0.3-1.3,0.4c-0.3,0.1-0.4,0.4-0.7,0.3  c0,0,0-0.1,0-0.1c0.4-0.5,1-1.1,1.7-1.1c0.8-0.1,1.6,0,2.4,0.1c0.6,0,1.1,0.2,1.7,0.3c0.2,0,0.3,0.4,0.4,0.4c0.3,0.1,0.5,0,0.8,0.2  c0-0.1,0-0.2,0-0.3c0.2-0.2,0.4,0,0.6,0c0.4-0.2-0.3-0.6-0.5-0.9c0,0,0-0.1,0-0.1c0.4,0.3,0.6,0.7,1.1,0.9c0.2,0.1,0.8,0.2,0.7,0  c-0.2-0.5-0.7-0.9-1-1.3c0,0,0-0.1,0-0.2c-0.1,0-0.1,0-0.1-0.1c0,0,0-0.1,0-0.2C51,34,51,33.8,50.9,33.7c-0.1-0.2,0-0.5-0.1-0.8  s-0.1-0.5-0.2-0.8c-0.1-0.8-0.3-1.4-0.4-2.1c-0.1-0.8,0.5-1.5,0.9-2.3c0.3-0.5,0.7-1.1,1.2-1.4c0.1-0.5,0.5-1,0.8-1.4  c0.4-0.4,0.9-0.7,1.4-0.9c0.6-0.3,1.2-0.5,1.2-0.5H25.2v23.5h21.6c0.8-0.6,1.7-0.9,2.9-1.5C50.3,45.3,51.6,44.7,52,44.3z M45.1,41.1  c-0.1,0-0.3,0-0.2,0c0-0.2,0.4-0.2,0.5-0.3c0.1,0,0.2-0.1,0.3-0.1c0.1,0.1,0.2,0.1,0.3,0.2C45.8,41.1,45.5,41,45.1,41.1z M38.3,40.1  C38.3,40.1,38.3,40.1,38.3,40.1c0.5-0.8,1-1.6,1.4-2.4c0.6-0.3,1.1-0.8,1.5-1.2c0.8-0.8,1.6-1.5,2.5-2c0.4-0.1,0.8-0.1,1.2,0  c-0.1,0.2-0.4,0.1-0.5,0.3c0,0-0.1,0-0.1,0c0,0,0-0.1,0-0.1c-0.4,0.5-1.1,0.7-1.4,1.3c-0.3,0.4-0.4,1-1,1.2c-0.2,0,0-0.1,0-0.1  C40.4,37.9,39.4,38.9,38.3,40.1z M42,37.2c0,0.1-0.1,0.1-0.1,0.2c0,0.1-0.1,0.1-0.2,0.2c0,0-0.1,0-0.1,0  C41.7,37.3,41.8,37.2,42,37.2C42,37.1,42,37.2,42,37.2z M44.1,43.9c0,0-0.1,0.1-0.1,0.1c0.1,0,0.1,0,0.1,0.1  c-0.1,0.1-0.2,0.2-0.3,0.2c0,0,0,0-0.1,0c-0.1,0.1-0.1,0.1-0.2,0.2c-0.1,0-0.3,0-0.2-0.1c0.1-0.1,0.2-0.2,0.3-0.3  c0.1-0.1,0.1-0.1,0.2-0.2c0,0,0.1-0.1,0.1-0.1C43.9,43.8,44.1,43.8,44.1,43.9z M43.3,43.5C43.3,43.5,43.3,43.5,43.3,43.5  c-0.2,0.1-0.3,0.2-0.5,0.3c-0.2,0.1-0.4,0.2-0.6,0.3c0,0,0,0,0,0c0,0,0,0-0.1,0c-0.2,0.1-0.3,0.2-0.4,0.3c0,0,0,0-0.1,0.1l0,0l0,0  c0,0,0,0-0.1,0.1c0,0,0,0,0,0l0,0c0,0-0.1,0.1-0.1,0.1c0,0,0,0-0.1,0.1c0,0-0.1,0-0.1,0c0,0,0,0,0,0c0,0-0.1,0-0.1,0c0,0,0,0-0.1,0  c0,0,0,0,0,0c0,0,0,0,0,0c-0.1,0-0.1,0.1-0.2,0.1c-0.1,0.1-0.2,0.2-0.3,0.3c0,0,0,0,0,0c0,0,0,0,0,0c0,0,0,0,0,0c0,0,0,0,0,0  c0,0,0,0,0,0c0,0,0,0,0,0c0,0,0,0,0,0c0,0,0,0,0,0c0,0,0,0,0,0c0,0,0,0,0,0c0,0,0,0,0-0.1v0c0,0,0,0,0,0c0-0.1,0.1-0.1,0.1-0.2  c0,0,0,0,0,0c0,0,0,0,0-0.1c0,0,0.1-0.1,0.1-0.1c0,0,0,0,0,0c0-0.1,0.1-0.1,0.1-0.2c0,0,0,0,0,0c0,0,0,0,0,0c0,0,0-0.1,0.1-0.1  c0,0,0-0.1,0-0.1c0,0,0,0,0,0c0,0,0,0,0,0c0,0,0,0,0,0c0,0,0-0.1,0-0.1c0,0,0,0,0,0c0,0,0,0,0,0c0,0,0,0,0,0l0,0c0,0,0,0,0,0  c0,0,0,0,0-0.1c0,0,0,0,0,0c0-0.1,0.1-0.2,0.2-0.2c0,0,0,0,0,0c-0.1,0-0.1,0.1-0.2,0.1c0,0-0.1,0-0.1-0.1c0,0,0.1-0.1,0.1-0.1  c0,0,0,0,0,0c0.1-0.1,0.1-0.2,0.2-0.2c0.1,0,0.1-0.1,0.1-0.1c0,0,0,0,0,0c0,0,0.1-0.1,0.1-0.1c0,0,0,0,0,0c0.4-0.4,1.1-0.4,1.7-0.7  c0.2-0.1,0.5,0,0.7,0c0.1,0,0.3,0,0.4,0.1C44,43,43.7,43.3,43.3,43.5z M44.2,40.4c0,0,0.1,0,0.2-0.1c-0.1,0-0.2,0-0.4,0  c0,0,0,0,0-0.1c-0.2,0-0.5,0.1-0.7,0.2c-0.3,0.1-0.6,0.3-0.9,0.4c-0.5,0.2-0.9,0.6-1.4,0.8c0,0,0,0,0-0.1c0-0.1,0.2-0.2,0.3-0.3  c0,0,0-0.1,0-0.1c0.4-0.5,0.8-0.8,1.3-1.2c0,0,0-0.1,0-0.1c0.1-0.2,0.4-0.3,0.4-0.5c0-0.1,0.2-0.3,0.4-0.4c0,0-0.1,0-0.1-0.1  c-0.2,0-0.4,0.1-0.5,0c0.1-0.1,0.2-0.1,0.3-0.2c0,0-0.1,0-0.1-0.1c0-0.1,0.1-0.2,0.2-0.2c0.2,0,0.4,0,0.5-0.2c-0.3,0-0.7,0.1-1-0.1  c0.2-0.6,0.6-1.1,1.1-1.3c0,0,0.1,0,0.1,0c0,0.2-0.1,0.4-0.4,0.4c0.4,0.1,0.7,0.1,1.1,0.3c0,0.1-0.1,0-0.2,0c0.2,0.1,0.5,0,0.7,0.2  c-0.1,0.1-0.3,0-0.4,0c1.4,0.4,2.8,0.7,4,1.6c-1,0.5-2,0.7-3.1,0.9c-0.1,0-0.2,0-0.4,0c0,0,0,0.1,0,0.1c-0.2,0-0.3,0-0.4,0.1  C44.6,40.5,44.3,40.5,44.2,40.4z"/>
<path class="st2" d="M64.6,23.5c0,0,0.1,0,0.3,0.1c0.2,0.1,0.5,0.3,0.6,0.3c0.3,0.2,0.6,0.4,0.8,0.7c0.1,0.1,0.2,0.4,0.1,0.6  c-0.1,0.2-0.1,0.6-0.4,0.7c-0.3,0.1-0.6,0.1-0.9,0.1c-0.2,0-0.4,0-0.5-0.1c0.7,0.3,1.3,0.6,1.7,1.2c0,0.1,0.2,0.1,0.4,0.1  c0,0,0,0.1,0,0.1c-0.1,0.1-0.2,0.1-0.1,0.3c0,0,0.1,0,0.1,0c0.2-0.1,0.2-0.5,0.5-0.4c0.2,0.1,0.3,0.4,0.2,0.7  c-0.2,0.2-0.4,0.3-0.5,0.4c0,0.1,0,0.2,0,0.3c0.1,0.2,0.2,0.4,0.2,0.5c0.1,0.3,0.2,0.7,0.3,1c0.2,0.7,0.4,1.3,0.3,2  c0,0.4-0.2,0.7,0,1c0.1,0.4,0.3,0.6,0.5,0.9c0.2,0.3,0.4,0.4,0.5,0.7c0.3,0.4,0.8,0.9,0.5,1.4c-0.1,0.3-0.6,0.3-0.9,0.4  c-0.3,0.2,0,0.6,0.1,0.8c0.2,0.4-0.3,0.7-0.6,0.8c0.1,0.1,0.3,0.1,0.3,0.2c0,0.2,0.3,0.4,0.1,0.6c-0.2,0.3-0.7,0.4-0.4,0.8  c0.2,0.3,0.1,0.7,0,1c-0.1,0.4-0.5,0.6-0.8,0.7c-0.3,0.1-0.6,0.1-0.8,0c-0.1,0-0.2-0.1-0.3-0.1c-0.8-0.1-1.5-0.3-2.3-0.3  c-0.2,0-0.4,0.1-0.6,0.2c-0.2,0.1-0.4,0.3-0.5,0.5c0,0,0,0,0,0c0,0-0.1,0.1-0.1,0.1c0,0,0,0-0.1,0.1c0,0,0,0,0,0  c-0.1,0.2-0.2,0.3-0.4,0.5c0,0,0,0,0,0c0,0,0,0,0,0.1c-0.1,0.3-0.3,0.5-0.3,0.8c-0.3,1-0.2,1.9,0,2.1c0.1,0.1,1.5,0.5,2.4,0.9  c0.5,0.2,0.8,0.4,1,0.5H90V23.5H64.6z"/>
<path class="st3" d="M66.1,32.1c0.2,0,0.4,0,0.4,0.1c-0.1,0.4-0.6,0.4-0.9,0.8h-0.1c-0.1,0.1-0.1,0.3-0.2,0.3c-0.1,0-0.3,0-0.4,0  c0.2,0.2,0.4,0.3,0.7,0.3c0,0,0.1,0.1,0.1,0.2c0,0,0,0,0.1,0c0,0,0.1,0,0.1,0V34c-0.1,0.2-0.4,0.1-0.5,0.1c0.4,0.1,0.7,0.1,1,0  c0.3-0.1,0-0.5,0.2-0.8c-0.1,0,0-0.1-0.1-0.1c0.1-0.1,0.2-0.2,0.3-0.3c0.1,0,0.2,0,0.3-0.1c0-0.1-0.2-0.1-0.1-0.2  c0.3-0.2,0.5-0.4,0.4-0.7c0-0.1-0.4-0.1-0.6-0.2c-0.2-0.1-0.5,0-0.8,0c-0.2,0-0.4,0.1-0.7,0.2c-0.3,0.1-0.6,0.3-0.8,0.4  c0.3-0.1,0.6-0.2,1-0.3C65.6,32.1,65.9,32.1,66.1,32.1z"/>
</svg>